<svg xmlns="http://www.w3.org/2000/svg" xml:space="preserve" version="1.1" style="shape-rendering:geometricPrecision; text-rendering:geometricPrecision; image-rendering:optimizeQuality; fill-rule:evenodd; clip-rule:evenodd"
     height="800px" width="1732.4px" viewBox="6600 3500 12750 8050"
     xmlns:xlink="http://www.w3.org/1999/xlink">
 <g id="Layer_x0020_1">
  <metadata id="CorelCorpID_0Corel-Layer"/>
     <path class="bof-logo" d="M4345 9849c716,-26 897,-164 897,-492l0 -4788c0,-328 -181,-474 -897,-500l0 -112 2890 0c1881,0 2373,733 2373,1441 0,638 -500,1251 -1829,1380l0 26c1380,52 2053,647 2053,1475 0,863 -595,1691 -2519,1691l-2968 0 0 -121zm2778 -3123c949,0 1199,-500 1199,-1303 0,-742 -207,-1311 -1225,-1311l-595 0 0 2614 621 0 0 0zm104 3080c1104,0 1303,-569 1303,-1527 0,-759 -328,-1398 -1389,-1398l-638 0 0 2925 725 0 0 0z"/>
     <path class="bof-logo" d="M11678 3638c-69,52 -121,95 -121,190 0,17 9,60 26,104 69,129 207,121 250,121 95,0 190,-26 380,-78 86,-17 181,-43 276,-69 129,-35 552,-138 992,-138 302,0 1061,52 1734,604 725,595 1044,1484 1044,2390 0,1035 -380,1717 -604,2036 -500,733 -1355,1294 -2269,1294 -112,0 -311,-9 -587,-69 -647,-138 -1018,-397 -1242,-535 -147,190 -242,345 -242,587 0,155 52,285 69,336 69,147 198,354 526,518 423,207 863,207 1027,207 121,0 1113,-17 1717,-414 259,-173 354,-345 414,-457l103 60c-155,285 -285,466 -543,664 -259,190 -776,492 -1553,492 -129,0 -828,-17 -1303,-336 -60,-43 -216,-164 -345,-337 -207,-285 -242,-552 -242,-682 0,-354 216,-630 267,-716 -112,-112 -216,-224 -319,-336 -233,-268 -751,-871 -751,-1872 0,-397 78,-1251 949,-1864 242,-164 509,-293 776,-423 -69,-35 -147,-78 -216,-121 -414,-250 -535,-552 -535,-776 0,-285 164,-397 242,-457l78 78 0 0zm1432 5884l86 -95c-35,-52 -78,-103 -121,-138 -86,-78 -267,-181 -552,-181 -147,0 -311,35 -336,43 43,60 147,233 302,380 155,147 518,423 1078,423 242,0 707,-69 1165,-500 509,-492 716,-1216 716,-1907 0,-293 -26,-1087 -613,-1777 -95,-104 -311,-345 -647,-500 -216,-104 -483,-181 -984,-190 -621,-26 -578,-9 -975,-121 -328,518 -587,854 -587,2027 0,173 0,345 17,518 60,613 190,958 440,1527 86,-26 362,-129 656,-129 276,0 440,60 690,164 69,-138 138,-267 138,-423 0,-121 -43,-224 -60,-259 -86,-155 -224,-259 -423,-535 -69,-103 -440,-664 -440,-1208 0,-414 216,-871 500,-1165 78,-86 138,-138 328,-259 -43,138 -78,224 -78,371 0,345 242,630 449,871 60,69 112,138 164,207 95,129 345,449 345,914 0,216 -43,466 -268,880 -276,475 -535,751 -914,1147l-78 -86 0 0z"/>
     <path class="bof-logo" d="M16406 9849c716,-26 897,-164 897,-492l0 -4788c0,-328 -181,-474 -897,-500l0 -112 5133 0 60 2079 -129 17c-604,-1372 -1001,-1941 -2079,-1941l-828 0 0 2744 362 0c690,0 1070,-276 1303,-1156l112 0 0 2502 -112 0c-233,-889 -613,-1182 -1303,-1182l-362 0 0 2338c0,336 129,483 914,509l0 104 -3071 0 0 -121z"/>
 </g>
</svg>
